<svg width="33" height="50" viewBox="0 0 33 50" fill="none" xmlns="http://www.w3.org/2000/svg">
<g clip-path="url(#clip0_202_370)">
<path d="M6.85957 0.473809C5.61113 -0.0694494 4.36196 -0.124426 3.24958 0.316835C0.343052 1.46846 -0.724458 5.71614 0.870656 9.7866C2.14226 13.0346 4.7383 15.2604 7.29381 15.3639L7.30467 27.6201L7.04195 27.6208C6.82338 27.6215 6.64752 27.7987 6.64752 28.0172L6.65403 34.9486C6.65403 34.9494 6.65403 34.9494 6.65403 34.9494C6.65403 34.9501 6.65403 34.9501 6.65403 34.9501L6.65548 36.5994C6.65548 36.6001 6.65548 36.6001 6.65548 36.6001C6.65548 36.6008 6.65548 36.6008 6.65548 36.6008L6.65692 38.2501V38.2509L6.66561 47.8147C6.65403 48.4194 6.86608 48.9894 7.24749 49.3772C7.55653 49.6911 7.95675 49.864 8.3758 49.864C8.37724 49.864 8.37869 49.864 8.38014 49.864C8.79556 49.8633 9.19434 49.6889 9.50265 49.3743C9.88551 48.9829 10.099 48.4122 10.0889 47.8139L10.0773 34.9407C10.0773 34.94 10.0773 34.94 10.0773 34.9392C10.0773 34.9392 10.0773 34.9385 10.0773 34.9378L10.0708 28.0078C10.0708 27.9022 10.0288 27.8024 9.95426 27.7279C9.88044 27.6541 9.77984 27.6128 9.67563 27.6128C9.6749 27.6128 9.67418 27.6128 9.67418 27.6128L9.41219 27.6136L9.40061 14.9052C12.0611 13.5424 12.9549 9.53703 11.4162 5.61053C10.4833 3.22989 8.77964 1.30931 6.85957 0.473809ZM7.702 28.4107L9.01775 28.4064L9.27974 28.4057L9.28553 34.5464L7.44435 34.5522L7.43856 28.4115L7.702 28.4107ZM7.44652 36.9936L9.2877 36.9886L9.28843 37.8479L7.44724 37.8537L7.44652 36.9936ZM9.28698 36.1972L7.4458 36.2023L7.44507 35.3429L9.28626 35.3378L9.28698 36.1972ZM8.93742 48.8209C8.82451 48.9359 8.63634 49.0733 8.37724 49.0741C8.37652 49.0741 8.3758 49.0741 8.37507 49.0741C8.11308 49.0741 7.92346 48.9374 7.81128 48.8223C7.57752 48.5851 7.44869 48.2234 7.45665 47.8219L7.44869 38.6444L9.28915 38.6386L9.29784 47.8212C9.30363 48.2161 9.17263 48.5807 8.93742 48.8209ZM8.84695 14.3034C8.83537 14.3084 8.82813 14.3186 8.81655 14.3244C8.78254 14.3424 8.74924 14.3627 8.72247 14.3902C8.70437 14.4083 8.69424 14.4307 8.68049 14.4517C8.66602 14.4734 8.64937 14.4922 8.63924 14.5168C8.62476 14.5508 8.62114 14.5884 8.61753 14.626C8.61535 14.6398 8.60956 14.6513 8.60956 14.6658C8.60956 14.6658 8.60956 14.6658 8.60956 14.6665V14.6694C8.60956 14.6694 8.60956 14.6701 8.60956 14.6709L8.62042 27.6165H8.54587L8.09571 27.6179L8.08413 14.9725C8.08413 14.9696 8.08196 14.9667 8.08196 14.9631C8.08196 14.9595 8.08341 14.9566 8.08341 14.953C8.08268 14.9334 8.07328 14.9175 8.06893 14.8987C8.06314 14.8669 8.05735 14.8343 8.04433 14.8054C8.03998 14.7974 8.03347 14.7909 8.02913 14.783C7.98281 14.7005 7.91188 14.6369 7.82214 14.6043C7.80694 14.5985 7.79102 14.5985 7.77437 14.5949C7.74615 14.5884 7.71937 14.5775 7.68897 14.5775H7.68825C7.68463 14.5775 7.68173 14.5797 7.67812 14.5797C7.67522 14.5797 7.6716 14.5775 7.66871 14.5775C5.36433 14.686 2.80665 12.56 1.6067 9.49725C0.170803 5.83188 1.03784 2.04354 3.54052 1.05251C4.45387 0.690823 5.49171 0.742183 6.54474 1.19936C8.27592 1.9524 9.82182 3.71021 10.6802 5.89988C12.0842 9.48495 11.2628 13.2545 8.84695 14.3034Z" fill="white"/>
<path d="M9.57579 4.4437C9.56131 4.4126 9.54177 4.38583 9.51933 4.35907C8.85712 3.35068 8.0241 2.53615 7.11002 2.02545C7.06949 1.99217 7.02245 1.96685 6.96889 1.95166C6.96744 1.95094 6.96672 1.95166 6.96527 1.95094C6.86105 1.89741 6.75901 1.83737 6.65334 1.79107C5.65676 1.35777 4.66234 1.31364 3.77721 1.66376C1.51264 2.56147 0.658635 5.83549 1.79201 9.06393C1.79273 9.0661 1.79345 9.06972 1.79418 9.07189C1.83036 9.17388 1.86221 9.27588 1.90201 9.37788C2.35145 10.5237 3.01584 11.5321 3.79892 12.3141C3.81991 12.3401 3.8409 12.3647 3.86768 12.385C4.41048 12.913 5.00684 13.3348 5.6336 13.6075C6.18581 13.8476 6.73802 13.9684 7.27141 13.9684C7.69914 13.9684 8.11529 13.8903 8.50972 13.7341C10.8474 12.8074 11.6884 9.34749 10.3849 6.01995C10.1642 5.45716 9.88772 4.93126 9.57579 4.4437ZM3.4689 2.74304L2.16401 7.34229C1.85569 5.37614 2.34349 3.59446 3.4689 2.74304ZM2.55627 8.85777L4.41627 2.29888C4.61096 2.25331 4.80926 2.22148 5.0148 2.22148C5.44108 2.22148 5.8869 2.32058 6.33779 2.5159C6.35516 2.52385 6.37253 2.53471 6.3899 2.54266L3.91472 11.271C3.40087 10.6489 2.96011 9.90956 2.63805 9.08852C2.60766 9.01185 2.58377 8.93444 2.55627 8.85777ZM4.54582 11.943L7.09627 2.94776C7.72592 3.376 8.30273 3.96917 8.78836 4.68314L6.41595 13.0469C6.26108 13.002 6.10547 12.9499 5.94842 12.8812C5.457 12.6678 4.9844 12.3452 4.54582 11.943ZM8.21806 12.9984C7.89889 13.1257 7.55656 13.1814 7.20266 13.1727L9.34347 5.62426C9.45347 5.84561 9.55624 6.07348 9.64816 6.3093C10.7938 9.23103 10.1519 12.2323 8.21806 12.9984Z" fill="white"/>
<path d="M32.3314 9.64769C32.3973 9.45889 32.3126 9.25056 32.1331 9.16158L25.8359 6.04526C25.6557 5.95556 25.4364 6.01632 25.3278 6.1856C25.2192 6.35487 25.2547 6.57911 25.411 6.70643L29.8541 10.3168L28.4124 14.6853C28.4059 14.7048 28.408 14.7251 28.4051 14.7453C28.4015 14.7663 28.3921 14.7866 28.3921 14.8083C28.3921 14.809 28.3921 14.8097 28.3921 14.8097L28.4254 27.615L28.1627 27.6164C27.9441 27.6172 27.7682 27.7944 27.769 28.0129L27.7878 34.9457C27.7878 34.9457 27.7871 34.9464 27.7871 34.9472L27.7878 34.9479L27.7921 36.5958C27.7921 36.5965 27.7914 36.5972 27.7914 36.5979C27.7914 36.5986 27.7921 36.5994 27.7921 36.6001L27.7965 38.248C27.7965 38.248 27.7965 38.248 27.7965 38.2487C27.7965 38.2487 27.7965 38.2487 27.7965 38.2494L27.8218 47.8002C27.7878 48.3803 27.9854 48.9424 28.3639 49.341C28.6838 49.6788 29.0985 49.8647 29.532 49.8647C29.5342 49.8647 29.5356 49.8647 29.5378 49.8647C29.946 49.8633 30.3404 49.6889 30.6487 49.3735C31.0374 48.9764 31.2538 48.4049 31.2436 47.8125L31.2089 34.9349L31.1908 28.002C31.1901 27.8971 31.1488 27.7958 31.0743 27.7228C30.9997 27.6483 30.8998 27.6078 30.7956 27.6078C30.7949 27.6078 30.7942 27.6078 30.7935 27.6078L30.5315 27.6085L30.4982 14.8647L32.3314 9.64769ZM28.822 28.4056C28.822 28.4056 28.8227 28.4056 28.8235 28.4056L29.2555 28.4042L29.6688 28.4028L30.4012 28.3999L30.4171 34.5421L28.5767 34.5486L28.5607 28.4064L28.8213 28.4049C28.8213 28.4049 28.8213 28.4056 28.822 28.4056ZM28.5824 36.9914L30.4229 36.9842L30.4258 37.8443L28.5853 37.8508L28.5824 36.9914ZM30.4215 36.1936L28.581 36.2001L28.5781 35.34L30.4186 35.3335L30.4215 36.1936ZM30.0828 48.8209C29.9706 48.9359 29.7838 49.0733 29.5342 49.0741C29.5334 49.0741 29.5327 49.0741 29.5313 49.0741C29.317 49.0741 29.1057 48.9757 28.9371 48.797C28.7084 48.5561 28.589 48.2096 28.6107 47.8219L28.5868 38.6422L30.4272 38.6357L30.4511 47.8204C30.4584 48.2038 30.3209 48.5771 30.0828 48.8209ZM29.2157 27.6128L29.1831 14.8719L30.69 10.3067C30.7421 10.1504 30.6914 9.979 30.5648 9.87556L28.6519 8.32174L31.4687 9.71569L29.7303 14.6665C29.7223 14.6882 29.7252 14.7092 29.7209 14.7309C29.7173 14.7533 29.7079 14.7743 29.7079 14.7974C29.7079 14.7974 29.7079 14.7982 29.7079 14.7989L29.7404 27.6107L29.6094 27.6114L29.2157 27.6128Z" fill="white"/>
<path d="M22.7585 5.03473C21.8604 4.46904 20.8225 4.17029 19.7579 4.17029C19.7558 4.17029 19.7543 4.17029 19.7529 4.17029C16.6328 4.17173 14.0932 6.72092 14.0918 9.85099C14.0896 12.5832 16.0394 14.9146 18.6781 15.421L18.6709 27.6129H18.4074C18.1896 27.6129 18.013 27.7901 18.013 28.0078L18.0087 34.9421C18.0087 34.9421 18.0087 34.9421 18.0087 34.9429C18.0087 34.9436 18.0087 34.9429 18.0087 34.9436L18.0007 47.8125C17.9906 48.4187 18.2041 48.9894 18.5862 49.3779C18.8945 49.6918 19.294 49.8647 19.7094 49.8647C19.7102 49.8647 19.7109 49.8647 19.7109 49.8647C20.1263 49.864 20.5265 49.6911 20.8348 49.3764C21.2184 48.9865 21.4327 48.4158 21.4225 47.8176L21.4283 38.2422L21.4348 28.0078C21.4348 27.9022 21.3936 27.8017 21.319 27.7279C21.2445 27.6541 21.1446 27.6121 21.0397 27.6121C21.0397 27.6121 21.0397 27.6121 21.0389 27.6121H20.7777L20.7856 14.3613C20.7856 14.349 20.7798 14.3374 20.7784 14.3251C20.7762 14.2983 20.7704 14.273 20.7625 14.2477C20.7552 14.2231 20.7473 14.2007 20.7357 14.179C20.7234 14.1558 20.7096 14.1363 20.6937 14.1168C20.6778 14.0965 20.6612 14.0791 20.6423 14.0625C20.6228 14.0459 20.6033 14.0336 20.5815 14.0213C20.5577 14.0075 20.5345 13.9974 20.5084 13.9887C20.4961 13.9851 20.4875 13.9771 20.4752 13.9743C18.537 13.5482 17.1836 11.8526 17.1858 9.85026C17.1872 7.51881 19.0769 5.62139 21.3979 5.61994C21.7547 5.61994 22.1086 5.66407 22.4495 5.75232C22.6391 5.80151 22.8345 5.70458 22.9112 5.5259C22.988 5.34723 22.9235 5.13889 22.7585 5.03473ZM19.066 28.4042L19.4503 28.4035H20.6438L20.6409 34.5457L18.7997 34.5472L18.8033 28.4042H19.066C19.0653 28.4042 19.0653 28.4042 19.066 28.4042ZM18.7983 36.9886L20.6387 36.9871L20.638 37.8472L18.7975 37.8487L18.7983 36.9886ZM20.6387 36.1965L18.7983 36.1979L18.799 35.3378L20.6394 35.3371L20.6387 36.1965ZM20.2718 48.8216C20.1589 48.9366 19.97 49.0741 19.7109 49.0741C19.7109 49.0741 19.7109 49.0741 19.7102 49.0741C19.4511 49.0741 19.2629 48.9381 19.1507 48.8231C18.9155 48.5844 18.7852 48.2212 18.7917 47.8197L18.7975 38.6393L20.638 38.6386L20.6322 47.8241C20.6387 48.2183 20.507 48.5822 20.2718 48.8216ZM16.394 9.85026C16.3926 12.0812 17.8892 14.0538 19.9946 14.6651L19.9866 27.6129H19.4612L19.4692 15.0897C19.4692 15.0709 19.4612 15.055 19.4583 15.0376C19.4547 15.0109 19.4518 14.9848 19.4424 14.9595C19.4344 14.9356 19.4221 14.9146 19.4091 14.8929C19.3961 14.8712 19.3838 14.8503 19.3671 14.8307C19.3505 14.8112 19.3309 14.7967 19.3107 14.7808C19.2904 14.7656 19.2716 14.7504 19.2484 14.7389C19.2253 14.7273 19.1999 14.7208 19.1746 14.7135C19.1565 14.7092 19.142 14.6991 19.1232 14.6962C16.7038 14.388 14.8799 12.3047 14.8821 9.85171C14.8836 7.15712 17.0685 4.96311 19.7529 4.96167C19.9005 4.97541 20.0395 4.96818 20.1813 4.97975C18.0101 5.52735 16.3962 7.50362 16.394 9.85026Z" fill="white"/>
</g>
<defs>
<clipPath id="clip0_202_370">
<rect width="32.377" height="50" fill="white"/>
</clipPath>
</defs>
</svg>
