<svg width="49" height="50" viewBox="0 0 49 50" fill="none" xmlns="http://www.w3.org/2000/svg">
<path d="M37.8386 43.7522C36.7471 43.7522 35.7201 43.1706 35.2066 42.325L31.2177 33.9478C31.2118 33.9346 31.2038 33.9244 31.1957 33.9134L32.3376 31.7811C33.0106 32.1432 33.5804 32.6772 33.9557 33.3414L39.0199 43.7522H37.8386ZM29.1336 33.3553H11.546L13.1056 31.2763H30.2492L29.1336 33.3553ZM27.1564 37.5132H12.1868L11.1466 35.4342H29.2375C29.2375 36.5827 28.3034 37.5132 27.1564 37.5132ZM22.0497 47.9108H17.6906L16.8575 39.595H22.8822L22.0497 47.9108ZM9.60603 32.4723L2.76132 19.8443C2.78253 19.8414 2.80667 19.8414 2.82788 19.8392H3.21851C3.37066 19.8392 3.52208 19.8312 3.66839 19.8151C5.02314 19.8341 6.64123 20.1508 7.51685 21.3973L11.5321 29.9069L9.60603 32.4723ZM2.17831 17.7603V12.5629H3.21924C4.36844 12.5629 5.30038 13.4956 5.30038 14.6418V15.6813C5.30038 16.723 4.52864 17.5876 3.52501 17.7368C3.2507 17.7368 2.98516 17.7442 2.7401 17.7603H2.17831ZM47.9538 43.5795C47.8602 43.0163 47.3284 42.6337 46.7564 42.7259L41.2796 43.6381L35.7969 32.3765C34.6931 30.4153 32.6097 29.1974 30.3552 29.1974H14.2709L15.3111 27.1184H25.0723C25.6473 27.1184 26.1132 26.6525 26.1132 26.079C26.1132 25.5047 25.6473 25.0395 25.0723 25.0395H14.6673C14.2738 25.0395 13.9117 25.2597 13.7361 25.6137L12.7427 27.5968L9.3639 20.4368C9.34196 20.3893 9.31855 20.3476 9.28856 20.3015C8.57095 19.2277 7.57537 18.5817 6.51907 18.2072C7.05892 17.505 7.38079 16.6308 7.38079 15.6813V14.6418C7.38079 12.3508 5.51544 10.4839 3.21851 10.4839H1.13737C0.563138 10.4839 0.097168 10.9492 0.097168 11.5234V18.7997C0.097168 18.8422 0.105215 18.8817 0.110335 18.9219C0.0869269 19.1267 0.121308 19.3396 0.222256 19.5261L8.53876 34.8702L10.614 39.0179C10.7896 39.3712 11.1495 39.595 11.546 39.595H14.7654L15.5985 47.9108H11.546C10.971 47.9108 10.5051 48.3753 10.5051 48.9503C10.5051 49.5245 10.971 49.989 11.546 49.989H28.1966C28.7715 49.989 29.2368 49.5245 29.2368 48.9503C29.2368 48.3753 28.7715 47.9108 28.1966 47.9108H24.1411L24.9743 39.595H27.1564C28.6362 39.595 29.9375 38.813 30.6742 37.6463L33.3756 43.3089C34.3098 44.8641 36.02 45.8319 37.8378 45.8319H40.6856C40.7412 45.8319 40.7975 45.826 40.856 45.818L47.0994 44.7785C47.6656 44.6827 48.0497 44.1487 47.9531 43.5795" fill="white"/>
<path d="M37.0429 26.3789C36.4687 26.3789 36.0027 26.8368 36.0027 27.4184C36.0027 27.9904 36.4687 28.4586 37.0429 28.4586C37.6149 28.4586 38.0838 27.9904 38.0838 27.4184C38.0838 26.8368 37.6149 26.3789 37.0429 26.3789Z" fill="white"/>
<path d="M22.561 6.88202C26.8718 6.88202 30.443 9.5213 31.2418 12.0787H13.8817C14.6805 9.5213 18.2517 6.88202 22.561 6.88202ZM27.2178 2.62245C27.8089 2.03286 28.8359 2.03505 29.4262 2.62245C30.0327 3.2318 30.0327 4.2208 29.4262 4.82941L28.1673 6.08687C27.1593 5.59237 26.0416 5.21492 24.8382 5.00205L27.2178 2.62245ZM12.674 14.1605H32.4466C33.0216 14.1605 33.4876 13.6924 33.4876 13.1189C33.4876 11.0341 32.1701 8.81686 29.999 7.1973L30.898 6.29901C31.7415 5.45631 32.0794 4.30273 31.9229 3.20473H33.9192C35.0625 3.20473 36.0025 4.14033 36.0025 5.2866V23.2605C36.0025 23.8318 36.4685 24.3 37.0427 24.3C37.6147 24.3 38.0836 23.8318 38.0836 23.2605V5.2866C38.0836 2.98674 36.2205 1.12579 33.9192 1.12579H30.8688C29.4475 -0.264807 27.1564 -0.256761 25.746 1.15212L22.0841 4.81332C16.0697 5.02838 11.6338 9.29527 11.6338 13.1189C11.6338 13.6924 12.099 14.1605 12.674 14.1605Z" fill="white"/>
</svg>
