<svg width="205" height="61" viewBox="0 0 205 61" fill="none" xmlns="http://www.w3.org/2000/svg">
<path d="M46.9716 32.3293C46.7975 32.7175 46.6212 33.1058 46.4448 33.4918C45.8365 33.5476 45.14 33.6184 44.481 33.7085C42.7529 33.9423 40.5819 34.6201 36.2596 36.5806C31.9395 38.5454 28.2674 43.1014 25.3514 47.2348C22.4353 51.3703 19.5545 60.5873 17.2137 60.9369C14.8751 61.2887 12.9664 57.6444 12.0649 56.1729C11.1656 54.6993 8.93281 50.109 7.92552 47.7967C6.91824 45.4823 3.94046 37.237 2.3557 31.8166C0.773133 26.3941 0.149364 21.1625 0.00389208 14.3865C-0.139376 7.61048 3.70021 3.87392 6.96452 2.61267C7.00861 2.59551 7.05049 2.58049 7.09677 2.56548C8.78734 1.99062 11.7365 2.43035 15.1925 3.73021C18.5979 5.01291 22.4948 7.13429 26.1559 9.94851C26.1559 9.94851 19.8432 7.14287 15.4504 7.25012C11.0576 7.35523 7.99826 9.7383 6.41349 12.8206C4.82873 15.9051 4.46945 22.2843 5.04473 27.4709C5.62221 32.6574 7.92552 40.6475 9.36482 44.9932C10.8063 49.339 13.3631 53.2986 14.9831 54.3497C16.6032 55.4007 17.5752 53.8241 19.6867 49.384C21.7983 44.9461 27.3196 39.8989 30.1034 37.7025C32.6801 35.6712 40.8243 32.8183 46.9716 32.3293Z" fill="#0275D8"/>
<path d="M6.77271 1.72463C9.12451 0.742224 14.7891 1.20983 20.2135 4.19994C25.64 7.19004 30.1034 9.75973 35.4793 8.31187C40.8573 6.86401 47.1942 4.90135 51.0823 6.95624C54.9703 9.01328 54.9219 14.5259 53.3856 20.135C51.8493 25.742 45.6094 39.9461 42.4399 44.3862C39.2726 48.8242 38.2653 50.6474 38.2653 50.6474C59.0502 29.9011 61.2102 13.1724 60.4189 9.94849C59.6277 6.72458 58.7152 5.46119 57.0819 4.43374C55.4508 3.40629 51.274 1.3514 45.5124 2.93869C39.7531 4.52812 37.5445 5.6478 36.0082 6.1626C34.472 6.67739 30.5596 7.00343 28.4481 6.44359C26.3343 5.8816 19.3495 1.63025 15.5584 0.928838C9.90477 -0.0750144 6.77271 1.72463 6.77271 1.72463Z" fill="#0275D8"/>
<path d="M73.9921 32.232C72.6641 32.232 71.4721 31.976 70.4161 31.464C69.3761 30.936 68.5601 30.216 67.9681 29.304C67.3761 28.376 67.0801 27.352 67.0801 26.232V20.952C67.0801 19.832 67.3761 18.824 67.9681 17.928C68.5601 17.016 69.3761 16.304 70.4161 15.792C71.4721 15.264 72.6641 15 73.9921 15C75.3361 15 76.5281 15.264 77.5681 15.792C78.6241 16.304 79.4481 17.016 80.0401 17.928C80.6321 18.824 80.9281 19.832 80.9281 20.952V26.232C80.9281 27.352 80.6321 28.376 80.0401 29.304C79.4481 30.216 78.6241 30.936 77.5681 31.464C76.5121 31.976 75.3201 32.232 73.9921 32.232ZM73.9921 30.264C75.4801 30.264 76.6401 29.896 77.4721 29.16C78.3041 28.424 78.7201 27.44 78.7201 26.208V21C78.7201 19.768 78.3041 18.792 77.4721 18.072C76.6401 17.336 75.4801 16.968 73.9921 16.968C72.5201 16.968 71.3681 17.336 70.5361 18.072C69.7041 18.792 69.2881 19.768 69.2881 21V26.208C69.2881 27.44 69.7041 28.424 70.5361 29.16C71.3681 29.896 72.5201 30.264 73.9921 30.264Z" fill="#003366"/>
<path d="M84.8399 32.016C84.5199 32.016 84.2479 31.92 84.0239 31.728C83.7999 31.52 83.6879 31.264 83.6879 30.96V16.272C83.6879 15.968 83.7919 15.72 83.9999 15.528C84.2239 15.32 84.5039 15.216 84.8399 15.216H90.4559C91.8159 15.216 93.0159 15.472 94.0559 15.984C95.0959 16.496 95.9039 17.216 96.4799 18.144C97.0719 19.056 97.3679 20.104 97.3679 21.288V25.896C97.3679 27.08 97.0719 28.136 96.4799 29.064C95.9039 29.992 95.0879 30.72 94.0319 31.248C92.9919 31.76 91.7999 32.016 90.4559 32.016H84.8399ZM90.2159 30.048C91.7519 30.048 92.9519 29.688 93.8159 28.968C94.6799 28.232 95.1119 27.216 95.1119 25.92V21.264C95.1119 19.984 94.6799 18.984 93.8159 18.264C92.9519 17.544 91.7519 17.184 90.2159 17.184H85.9439V30.048H90.2159Z" fill="#003366"/>
<path d="M106.805 32.232C105.477 32.232 104.285 31.976 103.229 31.464C102.189 30.936 101.373 30.216 100.781 29.304C100.189 28.376 99.8926 27.352 99.8926 26.232V20.952C99.8926 19.832 100.189 18.824 100.781 17.928C101.373 17.016 102.189 16.304 103.229 15.792C104.285 15.264 105.477 15 106.805 15C108.149 15 109.341 15.264 110.381 15.792C111.437 16.304 112.261 17.016 112.853 17.928C113.445 18.824 113.741 19.832 113.741 20.952V26.232C113.741 27.352 113.445 28.376 112.853 29.304C112.261 30.216 111.437 30.936 110.381 31.464C109.325 31.976 108.133 32.232 106.805 32.232ZM106.805 30.264C108.293 30.264 109.453 29.896 110.285 29.16C111.117 28.424 111.533 27.44 111.533 26.208V21C111.533 19.768 111.117 18.792 110.285 18.072C109.453 17.336 108.293 16.968 106.805 16.968C105.333 16.968 104.181 17.336 103.349 18.072C102.517 18.792 102.101 19.768 102.101 21V26.208C102.101 27.44 102.517 28.424 103.349 29.16C104.181 29.896 105.333 30.264 106.805 30.264Z" fill="#003366"/>
<path d="M116.5 16.944C116.5 16.336 116.684 15.864 117.052 15.528C117.436 15.176 117.964 15 118.636 15L127.948 29.16L128.116 29.016L127.42 27.864V15C128.156 15 128.708 15.16 129.076 15.48C129.46 15.8 129.652 16.264 129.652 16.872V30.456C129.652 30.968 129.468 31.392 129.1 31.728C128.748 32.064 128.292 32.232 127.732 32.232L118.204 17.76L118.036 17.904L118.732 19.056V30.36C118.732 30.968 118.54 31.432 118.156 31.752C117.788 32.072 117.236 32.232 116.5 32.232V16.944Z" fill="#003366"/>
<path d="M137.43 17.208H131.574C131.574 15.88 132.198 15.216 133.446 15.216H145.518C145.518 16.544 144.894 17.208 143.646 17.208H139.686V30.36C139.686 30.968 139.494 31.432 139.11 31.752C138.726 32.072 138.166 32.232 137.43 32.232V17.208Z" fill="#003366"/>
<path d="M152.789 32.232C151.461 32.232 150.269 31.976 149.213 31.464C148.173 30.936 147.357 30.216 146.765 29.304C146.173 28.376 145.877 27.352 145.877 26.232V20.952C145.877 19.832 146.173 18.824 146.765 17.928C147.357 17.016 148.173 16.304 149.213 15.792C150.269 15.264 151.461 15 152.789 15C154.133 15 155.325 15.264 156.365 15.792C157.421 16.304 158.245 17.016 158.837 17.928C159.429 18.824 159.725 19.832 159.725 20.952V26.232C159.725 27.352 159.429 28.376 158.837 29.304C158.245 30.216 157.421 30.936 156.365 31.464C155.309 31.976 154.117 32.232 152.789 32.232ZM152.789 30.264C154.277 30.264 155.437 29.896 156.269 29.16C157.101 28.424 157.517 27.44 157.517 26.208V21C157.517 19.768 157.101 18.792 156.269 18.072C155.437 17.336 154.277 16.968 152.789 16.968C151.317 16.968 150.165 17.336 149.333 18.072C148.501 18.792 148.085 19.768 148.085 21V26.208C148.085 27.44 148.501 28.424 149.333 29.16C150.165 29.896 151.317 30.264 152.789 30.264Z" fill="#003366"/>
<path d="M168.672 16.272C168.672 15.968 168.776 15.72 168.984 15.528C169.208 15.32 169.488 15.216 169.824 15.216H176.448C178 15.216 179.232 15.672 180.144 16.584C181.072 17.48 181.536 18.68 181.536 20.184C181.536 22.072 180.712 23.408 179.064 24.192V24.264C179.784 24.568 180.336 25.032 180.72 25.656C181.104 26.264 181.296 27.008 181.296 27.888V30.36C181.296 30.968 181.104 31.432 180.72 31.752C180.336 32.072 179.776 32.232 179.04 32.232V28.032C179.04 27.088 178.824 26.376 178.392 25.896C177.976 25.4 177.352 25.152 176.52 25.152H170.904V30.36C170.904 30.968 170.712 31.432 170.328 31.752C169.96 32.072 169.408 32.232 168.672 32.232V16.272ZM176.376 23.208C177.256 23.208 177.952 22.936 178.464 22.392C178.992 21.848 179.256 21.104 179.256 20.16C179.256 19.2 179.008 18.464 178.512 17.952C178.016 17.44 177.304 17.184 176.376 17.184H170.904V23.208H176.376Z" fill="#003366"/>
<path d="M185.137 16.872C185.137 16.28 185.329 15.824 185.713 15.504C186.113 15.168 186.673 15 187.393 15V30.36C187.393 30.952 187.193 31.416 186.793 31.752C186.409 32.072 185.857 32.232 185.137 32.232V16.872Z" fill="#003366"/>
<path d="M197.555 32.232C196.227 32.232 195.035 31.976 193.979 31.464C192.939 30.936 192.123 30.216 191.531 29.304C190.939 28.376 190.643 27.352 190.643 26.232V20.952C190.643 19.832 190.939 18.824 191.531 17.928C192.123 17.016 192.939 16.304 193.979 15.792C195.035 15.264 196.227 15 197.555 15C198.899 15 200.091 15.264 201.131 15.792C202.187 16.304 203.011 17.016 203.603 17.928C204.195 18.824 204.491 19.832 204.491 20.952V26.232C204.491 27.352 204.195 28.376 203.603 29.304C203.011 30.216 202.187 30.936 201.131 31.464C200.075 31.976 198.883 32.232 197.555 32.232ZM197.555 30.264C199.043 30.264 200.203 29.896 201.035 29.16C201.867 28.424 202.283 27.44 202.283 26.208V21C202.283 19.768 201.867 18.792 201.035 18.072C200.203 17.336 199.043 16.968 197.555 16.968C196.083 16.968 194.931 17.336 194.099 18.072C193.267 18.792 192.851 19.768 192.851 21V26.208C192.851 27.44 193.267 28.424 194.099 29.16C194.931 29.896 196.083 30.264 197.555 30.264Z" fill="#003366"/>
<path d="M70.8623 46.1683C69.5716 46.1683 68.5369 45.743 67.7583 44.8925C66.9839 44.0419 66.5967 42.9353 66.5967 41.5726C66.5967 40.1084 66.9924 38.9405 67.7837 38.0687C68.575 37.197 69.652 36.7611 71.0146 36.7611C72.2715 36.7611 73.2829 37.1843 74.0488 38.0306C74.819 38.877 75.2041 39.9836 75.2041 41.3505C75.2041 42.8358 74.8105 44.0101 74.0234 44.8734C73.2363 45.7367 72.1826 46.1683 70.8623 46.1683ZM70.9385 37.726C69.9821 37.726 69.2056 38.0708 68.6089 38.7606C68.0122 39.4504 67.7139 40.356 67.7139 41.4774C67.7139 42.5988 68.0037 43.5023 68.5835 44.1879C69.1675 44.8692 69.9271 45.2098 70.8623 45.2098C71.861 45.2098 72.6481 44.884 73.2236 44.2323C73.7992 43.5806 74.0869 42.6687 74.0869 41.4965C74.0869 40.2946 73.8076 39.3658 73.249 38.7098C72.6904 38.0539 71.9202 37.726 70.9385 37.726Z" fill="#0275D8"/>
<path d="M82.4023 46.016H81.3613V44.9115H81.3359C80.8535 45.7494 80.1087 46.1683 79.1016 46.1683C78.2848 46.1683 77.631 45.8785 77.1401 45.2987C76.6535 44.7147 76.4102 43.9213 76.4102 42.9183C76.4102 41.8435 76.681 40.9823 77.2227 40.3348C77.7643 39.6874 78.4858 39.3636 79.3872 39.3636C80.2801 39.3636 80.9297 39.7149 81.3359 40.4174H81.3613V36.3929H82.4023V46.016ZM81.3613 43.077V42.1185C81.3613 41.5938 81.1878 41.1495 80.8408 40.7855C80.4938 40.4216 80.0537 40.2396 79.5205 40.2396C78.8857 40.2396 78.3864 40.4724 78.0225 40.9379C77.6585 41.4034 77.4766 42.0466 77.4766 42.8676C77.4766 43.6166 77.6501 44.209 77.9971 44.6449C78.3483 45.0765 78.818 45.2924 79.4062 45.2924C79.986 45.2924 80.4557 45.0829 80.8154 44.6639C81.1794 44.245 81.3613 43.716 81.3613 43.077Z" fill="#0275D8"/>
<path d="M87.2266 46.1683C86.266 46.1683 85.4979 45.8658 84.9224 45.2606C84.3511 44.6512 84.0654 43.8451 84.0654 42.8422C84.0654 41.7504 84.3638 40.8977 84.9604 40.2841C85.5571 39.6705 86.3633 39.3636 87.3789 39.3636C88.348 39.3636 89.1034 39.662 89.645 40.2587C90.1909 40.8553 90.4639 41.6827 90.4639 42.7406C90.4639 43.7774 90.1698 44.6089 89.5815 45.2352C88.9976 45.8573 88.2126 46.1683 87.2266 46.1683ZM87.3027 40.2396C86.6341 40.2396 86.1051 40.4681 85.7158 40.9252C85.3265 41.378 85.1318 42.0043 85.1318 42.8041C85.1318 43.5743 85.3286 44.1815 85.7222 44.6259C86.1157 45.0702 86.6426 45.2924 87.3027 45.2924C87.9756 45.2924 88.4919 45.0744 88.8516 44.6385C89.2155 44.2027 89.3975 43.5827 89.3975 42.7787C89.3975 41.9662 89.2155 41.3399 88.8516 40.8998C88.4919 40.4597 87.9756 40.2396 87.3027 40.2396Z" fill="#0275D8"/>
<path d="M97.5225 46.016H96.4814V42.309C96.4814 40.9294 95.9779 40.2396 94.9707 40.2396C94.4502 40.2396 94.0186 40.4364 93.6758 40.83C93.3372 41.2193 93.168 41.7123 93.168 42.309V46.016H92.127V39.516H93.168V40.5951H93.1934C93.6842 39.7741 94.3952 39.3636 95.3262 39.3636C96.0371 39.3636 96.5809 39.5943 96.9575 40.0555C97.3341 40.5126 97.5225 41.1748 97.5225 42.0424V46.016Z" fill="#0275D8"/>
<path d="M102.505 45.9525C102.26 46.0879 101.936 46.1556 101.534 46.1556C100.396 46.1556 99.8267 45.5209 99.8267 44.2513V40.4047H98.7095V39.516H99.8267V37.9291L100.868 37.5927V39.516H102.505V40.4047H100.868V44.0673C100.868 44.5031 100.942 44.8142 101.09 45.0004C101.238 45.1866 101.483 45.2797 101.826 45.2797C102.089 45.2797 102.315 45.2077 102.505 45.0638V45.9525Z" fill="#0275D8"/>
<path d="M106.612 46.1683C105.652 46.1683 104.884 45.8658 104.308 45.2606C103.737 44.6512 103.451 43.8451 103.451 42.8422C103.451 41.7504 103.75 40.8977 104.346 40.2841C104.943 39.6705 105.749 39.3636 106.765 39.3636C107.734 39.3636 108.489 39.662 109.031 40.2587C109.577 40.8553 109.85 41.6827 109.85 42.7406C109.85 43.7774 109.556 44.6089 108.967 45.2352C108.383 45.8573 107.598 46.1683 106.612 46.1683ZM106.688 40.2396C106.02 40.2396 105.491 40.4681 105.102 40.9252C104.712 41.378 104.518 42.0043 104.518 42.8041C104.518 43.5743 104.714 44.1815 105.108 44.6259C105.501 45.0702 106.028 45.2924 106.688 45.2924C107.361 45.2924 107.878 45.0744 108.237 44.6385C108.601 44.2027 108.783 43.5827 108.783 42.7787C108.783 41.9662 108.601 41.3399 108.237 40.8998C107.878 40.4597 107.361 40.2396 106.688 40.2396Z" fill="#0275D8"/>
<path d="M112.554 46.016H111.513V36.3929H112.554V46.016Z" fill="#0275D8"/>
<path d="M117.378 46.1683C116.417 46.1683 115.649 45.8658 115.074 45.2606C114.502 44.6512 114.217 43.8451 114.217 42.8422C114.217 41.7504 114.515 40.8977 115.112 40.2841C115.708 39.6705 116.515 39.3636 117.53 39.3636C118.499 39.3636 119.255 39.662 119.796 40.2587C120.342 40.8553 120.615 41.6827 120.615 42.7406C120.615 43.7774 120.321 44.6089 119.733 45.2352C119.149 45.8573 118.364 46.1683 117.378 46.1683ZM117.454 40.2396C116.785 40.2396 116.257 40.4681 115.867 40.9252C115.478 41.378 115.283 42.0043 115.283 42.8041C115.283 43.5743 115.48 44.1815 115.874 44.6259C116.267 45.0702 116.794 45.2924 117.454 45.2924C118.127 45.2924 118.643 45.0744 119.003 44.6385C119.367 44.2027 119.549 43.5827 119.549 42.7787C119.549 41.9662 119.367 41.3399 119.003 40.8998C118.643 40.4597 118.127 40.2396 117.454 40.2396Z" fill="#0275D8"/>
<path d="M127.826 45.4955C127.826 47.8822 126.684 49.0756 124.398 49.0756C123.594 49.0756 122.892 48.9232 122.291 48.6185V47.5775C123.023 47.9838 123.721 48.1869 124.386 48.1869C125.985 48.1869 126.785 47.3363 126.785 45.6351V44.9242H126.76C126.265 45.7536 125.52 46.1683 124.525 46.1683C123.717 46.1683 123.065 45.8806 122.57 45.3051C122.079 44.7253 121.834 43.9488 121.834 42.9755C121.834 41.871 122.098 40.9929 122.627 40.3412C123.161 39.6895 123.889 39.3636 124.811 39.3636C125.687 39.3636 126.337 39.7149 126.76 40.4174H126.785V39.516H127.826V45.4955ZM126.785 43.077V42.1185C126.785 41.6023 126.61 41.16 126.258 40.7919C125.911 40.4237 125.478 40.2396 124.957 40.2396C124.314 40.2396 123.81 40.4745 123.446 40.9442C123.082 41.4097 122.9 42.0635 122.9 42.9056C122.9 43.6293 123.074 44.209 123.421 44.6449C123.772 45.0765 124.236 45.2924 124.811 45.2924C125.395 45.2924 125.869 45.085 126.233 44.6703C126.601 44.2556 126.785 43.7245 126.785 43.077Z" fill="#0275D8"/>
<path d="M130.467 37.8656C130.281 37.8656 130.122 37.8021 129.991 37.6752C129.86 37.5482 129.794 37.3874 129.794 37.1927C129.794 36.9981 129.86 36.8373 129.991 36.7103C130.122 36.5791 130.281 36.5135 130.467 36.5135C130.657 36.5135 130.818 36.5791 130.949 36.7103C131.085 36.8373 131.152 36.9981 131.152 37.1927C131.152 37.3789 131.085 37.5376 130.949 37.6688C130.818 37.8 130.657 37.8656 130.467 37.8656ZM130.975 46.016H129.934V39.516H130.975V46.016Z" fill="#0275D8"/>
<path d="M137.735 46.016H136.694V45.0004H136.668C136.216 45.779 135.549 46.1683 134.669 46.1683C134.021 46.1683 133.514 45.9969 133.146 45.6542C132.782 45.3114 132.6 44.8565 132.6 44.2894C132.6 43.0749 133.315 42.3682 134.745 42.1693L136.694 41.8964C136.694 40.7919 136.247 40.2396 135.354 40.2396C134.572 40.2396 133.865 40.5062 133.234 41.0394V39.973C133.873 39.5668 134.61 39.3636 135.443 39.3636C136.971 39.3636 137.735 40.1719 137.735 41.7885V46.016ZM136.694 42.7279L135.126 42.9437C134.644 43.0114 134.28 43.132 134.034 43.3055C133.789 43.4748 133.666 43.7774 133.666 44.2133C133.666 44.5306 133.778 44.7909 134.002 44.994C134.231 45.1929 134.534 45.2924 134.91 45.2924C135.426 45.2924 135.852 45.1125 136.186 44.7528C136.525 44.3889 136.694 43.9297 136.694 43.3754V42.7279Z" fill="#0275D8"/>
<path d="M144.33 45.0765H144.305V49.0057H143.264V39.516H144.305V40.6586H144.33C144.842 39.7953 145.591 39.3636 146.577 39.3636C147.415 39.3636 148.069 39.6556 148.539 40.2396C149.008 40.8194 149.243 41.598 149.243 42.5756C149.243 43.6631 148.979 44.5349 148.45 45.1908C147.921 45.8425 147.197 46.1683 146.279 46.1683C145.437 46.1683 144.787 45.8044 144.33 45.0765ZM144.305 42.455V43.3627C144.305 43.9001 144.478 44.3571 144.825 44.7338C145.176 45.1062 145.621 45.2924 146.158 45.2924C146.789 45.2924 147.282 45.0511 147.637 44.5687C147.997 44.0863 148.177 43.4156 148.177 42.5565C148.177 41.8329 148.01 41.2658 147.675 40.8553C147.341 40.4449 146.888 40.2396 146.317 40.2396C145.712 40.2396 145.225 40.4512 144.857 40.8744C144.489 41.2933 144.305 41.8202 144.305 42.455Z" fill="#0275D8"/>
<path d="M155.559 46.016H154.518V45.0004H154.493C154.04 45.779 153.373 46.1683 152.493 46.1683C151.846 46.1683 151.338 45.9969 150.97 45.6542C150.606 45.3114 150.424 44.8565 150.424 44.2894C150.424 43.0749 151.139 42.3682 152.569 42.1693L154.518 41.8964C154.518 40.7919 154.072 40.2396 153.179 40.2396C152.396 40.2396 151.689 40.5062 151.059 41.0394V39.973C151.698 39.5668 152.434 39.3636 153.268 39.3636C154.795 39.3636 155.559 40.1719 155.559 41.7885V46.016ZM154.518 42.7279L152.95 42.9437C152.468 43.0114 152.104 43.132 151.858 43.3055C151.613 43.4748 151.49 43.7774 151.49 44.2133C151.49 44.5306 151.602 44.7909 151.827 44.994C152.055 45.1929 152.358 45.2924 152.734 45.2924C153.251 45.2924 153.676 45.1125 154.01 44.7528C154.349 44.3889 154.518 43.9297 154.518 43.3754V42.7279Z" fill="#0275D8"/>
<path d="M160.91 40.5697C160.728 40.4301 160.466 40.3602 160.123 40.3602C159.679 40.3602 159.306 40.5697 159.006 40.9886C158.71 41.4076 158.562 41.9789 158.562 42.7025V46.016H157.521V39.516H158.562V40.8553H158.587C158.735 40.3983 158.961 40.0428 159.266 39.7889C159.571 39.5308 159.911 39.4017 160.288 39.4017C160.559 39.4017 160.766 39.4314 160.91 39.4906V40.5697Z" fill="#0275D8"/>
<path d="M166.693 46.016H165.652V45.0004H165.626C165.174 45.779 164.507 46.1683 163.627 46.1683C162.979 46.1683 162.472 45.9969 162.104 45.6542C161.74 45.3114 161.558 44.8565 161.558 44.2894C161.558 43.0749 162.273 42.3682 163.703 42.1693L165.652 41.8964C165.652 40.7919 165.205 40.2396 164.312 40.2396C163.53 40.2396 162.823 40.5062 162.192 41.0394V39.973C162.831 39.5668 163.568 39.3636 164.401 39.3636C165.929 39.3636 166.693 40.1719 166.693 41.7885V46.016ZM165.652 42.7279L164.084 42.9437C163.602 43.0114 163.238 43.132 162.992 43.3055C162.747 43.4748 162.624 43.7774 162.624 44.2133C162.624 44.5306 162.736 44.7909 162.96 44.994C163.189 45.1929 163.492 45.2924 163.868 45.2924C164.384 45.2924 164.81 45.1125 165.144 44.7528C165.483 44.3889 165.652 43.9297 165.652 43.3754V42.7279Z" fill="#0275D8"/>
<path d="M175.237 45.9525C174.991 46.0879 174.668 46.1556 174.266 46.1556C173.127 46.1556 172.558 45.5209 172.558 44.2513V40.4047H171.441V39.516H172.558V37.9291L173.599 37.5927V39.516H175.237V40.4047H173.599V44.0673C173.599 44.5031 173.673 44.8142 173.821 45.0004C173.969 45.1866 174.215 45.2797 174.558 45.2797C174.82 45.2797 175.046 45.2077 175.237 45.0638V45.9525Z" fill="#0275D8"/>
<path d="M179.344 46.1683C178.383 46.1683 177.615 45.8658 177.04 45.2606C176.468 44.6512 176.183 43.8451 176.183 42.8422C176.183 41.7504 176.481 40.8977 177.078 40.2841C177.674 39.6705 178.48 39.3636 179.496 39.3636C180.465 39.3636 181.221 39.662 181.762 40.2587C182.308 40.8553 182.581 41.6827 182.581 42.7406C182.581 43.7774 182.287 44.6089 181.699 45.2352C181.115 45.8573 180.33 46.1683 179.344 46.1683ZM179.42 40.2396C178.751 40.2396 178.222 40.4681 177.833 40.9252C177.444 41.378 177.249 42.0043 177.249 42.8041C177.249 43.5743 177.446 44.1815 177.839 44.6259C178.233 45.0702 178.76 45.2924 179.42 45.2924C180.093 45.2924 180.609 45.0744 180.969 44.6385C181.333 44.2027 181.515 43.5827 181.515 42.7787C181.515 41.9662 181.333 41.3399 180.969 40.8998C180.609 40.4597 180.093 40.2396 179.42 40.2396Z" fill="#0275D8"/>
<path d="M189.792 46.016H188.751V44.9115H188.726C188.243 45.7494 187.498 46.1683 186.491 46.1683C185.674 46.1683 185.021 45.8785 184.53 45.2987C184.043 44.7147 183.8 43.9213 183.8 42.9183C183.8 41.8435 184.071 40.9823 184.612 40.3348C185.154 39.6874 185.875 39.3636 186.777 39.3636C187.67 39.3636 188.319 39.7149 188.726 40.4174H188.751V36.3929H189.792V46.016ZM188.751 43.077V42.1185C188.751 41.5938 188.577 41.1495 188.23 40.7855C187.883 40.4216 187.443 40.2396 186.91 40.2396C186.275 40.2396 185.776 40.4724 185.412 40.9379C185.048 41.4034 184.866 42.0466 184.866 42.8676C184.866 43.6166 185.04 44.209 185.387 44.6449C185.738 45.0765 186.208 45.2924 186.796 45.2924C187.376 45.2924 187.845 45.0829 188.205 44.6639C188.569 44.245 188.751 43.716 188.751 43.077Z" fill="#0275D8"/>
<path d="M194.616 46.1683C193.656 46.1683 192.888 45.8658 192.312 45.2606C191.741 44.6512 191.455 43.8451 191.455 42.8422C191.455 41.7504 191.753 40.8977 192.35 40.2841C192.947 39.6705 193.753 39.3636 194.769 39.3636C195.738 39.3636 196.493 39.662 197.035 40.2587C197.581 40.8553 197.854 41.6827 197.854 42.7406C197.854 43.7774 197.559 44.6089 196.971 45.2352C196.387 45.8573 195.602 46.1683 194.616 46.1683ZM194.692 40.2396C194.024 40.2396 193.495 40.4681 193.105 40.9252C192.716 41.378 192.521 42.0043 192.521 42.8041C192.521 43.5743 192.718 44.1815 193.112 44.6259C193.505 45.0702 194.032 45.2924 194.692 45.2924C195.365 45.2924 195.882 45.0744 196.241 44.6385C196.605 44.2027 196.787 43.5827 196.787 42.7787C196.787 41.9662 196.605 41.3399 196.241 40.8998C195.882 40.4597 195.365 40.2396 194.692 40.2396Z" fill="#0275D8"/>
<path d="M199.123 45.7811V44.6639C199.69 45.0829 200.314 45.2924 200.996 45.2924C201.91 45.2924 202.367 44.9877 202.367 44.3783C202.367 44.2048 202.326 44.0588 202.246 43.9403C202.17 43.8176 202.064 43.7097 201.929 43.6166C201.798 43.5235 201.641 43.441 201.459 43.369C201.281 43.2928 201.089 43.2146 200.881 43.1342C200.594 43.0199 200.34 42.9056 200.12 42.7914C199.904 42.6729 199.722 42.5417 199.574 42.3978C199.43 42.2497 199.32 42.0826 199.244 41.8964C199.172 41.7102 199.136 41.4922 199.136 41.2426C199.136 40.9379 199.206 40.6691 199.345 40.4364C199.485 40.1994 199.671 40.0026 199.904 39.8461C200.137 39.6853 200.401 39.5647 200.697 39.4843C200.998 39.4038 201.307 39.3636 201.624 39.3636C202.187 39.3636 202.69 39.461 203.135 39.6556V40.7094C202.657 40.3962 202.106 40.2396 201.484 40.2396C201.29 40.2396 201.114 40.2629 200.958 40.3094C200.801 40.3518 200.666 40.4131 200.551 40.4935C200.441 40.5739 200.354 40.6713 200.291 40.7855C200.232 40.8955 200.202 41.0183 200.202 41.1537C200.202 41.323 200.232 41.4647 200.291 41.579C200.354 41.6932 200.445 41.7948 200.564 41.8837C200.682 41.9725 200.826 42.0529 200.996 42.1249C201.165 42.1968 201.357 42.2751 201.573 42.3597C201.861 42.4698 202.119 42.584 202.348 42.7025C202.576 42.8168 202.771 42.948 202.932 43.0961C203.092 43.2399 203.215 43.4071 203.3 43.5975C203.389 43.788 203.433 44.0144 203.433 44.2767C203.433 44.5983 203.361 44.8776 203.217 45.1146C203.078 45.3516 202.889 45.5484 202.652 45.705C202.415 45.8615 202.142 45.9779 201.833 46.0541C201.525 46.1302 201.201 46.1683 200.862 46.1683C200.194 46.1683 199.614 46.0393 199.123 45.7811Z" fill="#0275D8"/>
</svg>
